<mxfile host="Electron" modified="2023-07-05T13:18:22.512Z" agent="Mozilla/5.0 (Windows NT 10.0; Win64; x64) AppleWebKit/537.36 (KHTML, like Gecko) draw.io/21.2.8 Chrome/112.0.5615.165 Electron/24.2.0 Safari/537.36" etag="QLLBLbixFWsXo37lPT44" version="21.2.8" type="device" pages="2">
  <diagram name="Page-1" id="pGeKz2x8LOJb8SiRY0SI">
    <mxGraphModel dx="1036" dy="654" grid="1" gridSize="10" guides="1" tooltips="1" connect="1" arrows="1" fold="1" page="1" pageScale="1" pageWidth="850" pageHeight="1100" math="0" shadow="0">
      <root>
        <mxCell id="0" />
        <mxCell id="1" parent="0" />
        <mxCell id="L03gQ4mKm_Oz2k7DKbrt-1" value="&lt;font style=&quot;font-size: 16px&quot;&gt;User&lt;/font&gt;" style="rounded=0;whiteSpace=wrap;html=1;" parent="1" vertex="1">
          <mxGeometry x="80" y="365" width="120" height="60" as="geometry" />
        </mxCell>
        <mxCell id="L03gQ4mKm_Oz2k7DKbrt-2" value="&lt;font style=&quot;font-size: 15px&quot;&gt;Manage User Information&lt;/font&gt;" style="ellipse;whiteSpace=wrap;html=1;aspect=fixed;fontSize=16;" parent="1" vertex="1">
          <mxGeometry x="360" y="150" width="130" height="130" as="geometry" />
        </mxCell>
        <mxCell id="L03gQ4mKm_Oz2k7DKbrt-3" value="&lt;font style=&quot;font-size: 16px&quot;&gt;Record Information&lt;/font&gt;" style="ellipse;whiteSpace=wrap;html=1;aspect=fixed;fontSize=16;" parent="1" vertex="1">
          <mxGeometry x="360" y="330" width="130" height="130" as="geometry" />
        </mxCell>
        <mxCell id="L03gQ4mKm_Oz2k7DKbrt-4" value="&lt;font style=&quot;font-size: 15px&quot;&gt;Checks and registers Informations&lt;/font&gt;" style="ellipse;whiteSpace=wrap;html=1;aspect=fixed;fontSize=16;" parent="1" vertex="1">
          <mxGeometry x="360" y="500" width="130" height="130" as="geometry" />
        </mxCell>
        <mxCell id="L03gQ4mKm_Oz2k7DKbrt-5" value="" style="endArrow=none;html=1;rounded=0;fontSize=16;exitX=0;exitY=0;exitDx=0;exitDy=0;entryX=1;entryY=0;entryDx=0;entryDy=0;" parent="1" source="L03gQ4mKm_Oz2k7DKbrt-2" target="L03gQ4mKm_Oz2k7DKbrt-2" edge="1">
          <mxGeometry width="50" height="50" relative="1" as="geometry">
            <mxPoint x="400" y="420" as="sourcePoint" />
            <mxPoint x="450" y="370" as="targetPoint" />
          </mxGeometry>
        </mxCell>
        <mxCell id="L03gQ4mKm_Oz2k7DKbrt-6" value="" style="endArrow=none;html=1;rounded=0;fontSize=16;exitX=0;exitY=0;exitDx=0;exitDy=0;entryX=1;entryY=0;entryDx=0;entryDy=0;" parent="1" edge="1">
          <mxGeometry width="50" height="50" relative="1" as="geometry">
            <mxPoint x="378.99805922287436" y="349.9980592228744" as="sourcePoint" />
            <mxPoint x="470.9219407771256" y="349.9980592228744" as="targetPoint" />
          </mxGeometry>
        </mxCell>
        <mxCell id="L03gQ4mKm_Oz2k7DKbrt-7" value="" style="endArrow=none;html=1;rounded=0;fontSize=16;exitX=0;exitY=0;exitDx=0;exitDy=0;entryX=1;entryY=0;entryDx=0;entryDy=0;" parent="1" edge="1">
          <mxGeometry width="50" height="50" relative="1" as="geometry">
            <mxPoint x="378.99805922287436" y="519.9980592228744" as="sourcePoint" />
            <mxPoint x="470.9219407771256" y="519.9980592228744" as="targetPoint" />
          </mxGeometry>
        </mxCell>
        <mxCell id="L03gQ4mKm_Oz2k7DKbrt-8" value="&lt;font style=&quot;font-size: 12px&quot;&gt;1.3&lt;/font&gt;" style="text;html=1;strokeColor=none;fillColor=none;align=center;verticalAlign=middle;whiteSpace=wrap;rounded=0;fontSize=16;" parent="1" vertex="1">
          <mxGeometry x="395" y="490" width="60" height="30" as="geometry" />
        </mxCell>
        <mxCell id="L03gQ4mKm_Oz2k7DKbrt-9" value="&lt;font style=&quot;font-size: 12px&quot;&gt;1.2&lt;/font&gt;" style="text;html=1;strokeColor=none;fillColor=none;align=center;verticalAlign=middle;whiteSpace=wrap;rounded=0;fontSize=16;" parent="1" vertex="1">
          <mxGeometry x="395" y="320" width="60" height="30" as="geometry" />
        </mxCell>
        <mxCell id="L03gQ4mKm_Oz2k7DKbrt-10" value="&lt;font style=&quot;font-size: 12px&quot;&gt;1.1&lt;/font&gt;" style="text;html=1;strokeColor=none;fillColor=none;align=center;verticalAlign=middle;whiteSpace=wrap;rounded=0;fontSize=16;" parent="1" vertex="1">
          <mxGeometry x="395" y="140" width="60" height="30" as="geometry" />
        </mxCell>
        <mxCell id="L03gQ4mKm_Oz2k7DKbrt-11" value="" style="endArrow=classic;html=1;rounded=0;fontSize=16;exitX=1;exitY=0.25;exitDx=0;exitDy=0;" parent="1" source="L03gQ4mKm_Oz2k7DKbrt-1" edge="1">
          <mxGeometry width="50" height="50" relative="1" as="geometry">
            <mxPoint x="400" y="390" as="sourcePoint" />
            <mxPoint x="360" y="380" as="targetPoint" />
          </mxGeometry>
        </mxCell>
        <mxCell id="L03gQ4mKm_Oz2k7DKbrt-12" value="" style="endArrow=classic;html=1;rounded=0;fontSize=16;entryX=1;entryY=0.75;entryDx=0;entryDy=0;exitX=-0.003;exitY=0.618;exitDx=0;exitDy=0;exitPerimeter=0;" parent="1" source="L03gQ4mKm_Oz2k7DKbrt-3" target="L03gQ4mKm_Oz2k7DKbrt-1" edge="1">
          <mxGeometry width="50" height="50" relative="1" as="geometry">
            <mxPoint x="400" y="390" as="sourcePoint" />
            <mxPoint x="450" y="340" as="targetPoint" />
          </mxGeometry>
        </mxCell>
        <mxCell id="L03gQ4mKm_Oz2k7DKbrt-13" value="&lt;font style=&quot;font-size: 13px&quot;&gt;New user&lt;/font&gt;" style="text;html=1;strokeColor=none;fillColor=none;align=center;verticalAlign=middle;whiteSpace=wrap;rounded=0;fontSize=16;" parent="1" vertex="1">
          <mxGeometry x="230" y="350" width="90" height="30" as="geometry" />
        </mxCell>
        <mxCell id="L03gQ4mKm_Oz2k7DKbrt-14" value="&lt;font style=&quot;font-size: 13px&quot;&gt;Confirmation&lt;/font&gt;" style="text;html=1;strokeColor=none;fillColor=none;align=center;verticalAlign=middle;whiteSpace=wrap;rounded=0;fontSize=16;" parent="1" vertex="1">
          <mxGeometry x="230" y="410" width="90" height="30" as="geometry" />
        </mxCell>
        <mxCell id="L03gQ4mKm_Oz2k7DKbrt-15" value="" style="endArrow=classic;html=1;rounded=0;fontSize=13;exitX=0.75;exitY=1;exitDx=0;exitDy=0;entryX=-0.003;entryY=0.357;entryDx=0;entryDy=0;entryPerimeter=0;" parent="1" source="L03gQ4mKm_Oz2k7DKbrt-1" target="L03gQ4mKm_Oz2k7DKbrt-4" edge="1">
          <mxGeometry width="50" height="50" relative="1" as="geometry">
            <mxPoint x="400" y="380" as="sourcePoint" />
            <mxPoint x="450" y="330" as="targetPoint" />
            <Array as="points">
              <mxPoint x="170" y="546" />
            </Array>
          </mxGeometry>
        </mxCell>
        <mxCell id="L03gQ4mKm_Oz2k7DKbrt-16" value="" style="endArrow=classic;html=1;rounded=0;fontSize=13;exitX=0;exitY=0.5;exitDx=0;exitDy=0;entryX=0.5;entryY=1;entryDx=0;entryDy=0;" parent="1" source="L03gQ4mKm_Oz2k7DKbrt-4" target="L03gQ4mKm_Oz2k7DKbrt-1" edge="1">
          <mxGeometry width="50" height="50" relative="1" as="geometry">
            <mxPoint x="400" y="380" as="sourcePoint" />
            <mxPoint x="450" y="330" as="targetPoint" />
            <Array as="points">
              <mxPoint x="140" y="565" />
            </Array>
          </mxGeometry>
        </mxCell>
        <mxCell id="L03gQ4mKm_Oz2k7DKbrt-17" value="&lt;font style=&quot;font-size: 13px&quot;&gt;User Information&lt;/font&gt;" style="text;html=1;strokeColor=none;fillColor=none;align=center;verticalAlign=middle;whiteSpace=wrap;rounded=0;fontSize=16;" parent="1" vertex="1">
          <mxGeometry x="200" y="520" width="110" height="30" as="geometry" />
        </mxCell>
        <mxCell id="L03gQ4mKm_Oz2k7DKbrt-18" value="&lt;font style=&quot;font-size: 13px&quot;&gt;Checked Information confirmation&lt;/font&gt;" style="text;html=1;strokeColor=none;fillColor=none;align=center;verticalAlign=middle;whiteSpace=wrap;rounded=0;fontSize=16;" parent="1" vertex="1">
          <mxGeometry x="150" y="560" width="205" height="30" as="geometry" />
        </mxCell>
        <mxCell id="L03gQ4mKm_Oz2k7DKbrt-19" value="&lt;font style=&quot;font-size: 17px&quot;&gt;Admin&lt;/font&gt;" style="rounded=0;whiteSpace=wrap;html=1;fontSize=13;" parent="1" vertex="1">
          <mxGeometry x="640" y="185" width="120" height="60" as="geometry" />
        </mxCell>
        <mxCell id="L03gQ4mKm_Oz2k7DKbrt-20" value="" style="endArrow=classic;html=1;rounded=0;fontSize=17;entryX=1.006;entryY=0.594;entryDx=0;entryDy=0;entryPerimeter=0;exitX=0;exitY=0.75;exitDx=0;exitDy=0;" parent="1" source="L03gQ4mKm_Oz2k7DKbrt-19" target="L03gQ4mKm_Oz2k7DKbrt-2" edge="1">
          <mxGeometry width="50" height="50" relative="1" as="geometry">
            <mxPoint x="630" y="320" as="sourcePoint" />
            <mxPoint x="530" y="230" as="targetPoint" />
            <Array as="points" />
          </mxGeometry>
        </mxCell>
        <mxCell id="L03gQ4mKm_Oz2k7DKbrt-21" value="" style="endArrow=classic;html=1;rounded=0;fontSize=17;exitX=0.994;exitY=0.434;exitDx=0;exitDy=0;exitPerimeter=0;entryX=-0.01;entryY=0.37;entryDx=0;entryDy=0;entryPerimeter=0;" parent="1" source="L03gQ4mKm_Oz2k7DKbrt-2" target="L03gQ4mKm_Oz2k7DKbrt-19" edge="1">
          <mxGeometry width="50" height="50" relative="1" as="geometry">
            <mxPoint x="400" y="350" as="sourcePoint" />
            <mxPoint x="620" y="270" as="targetPoint" />
            <Array as="points" />
          </mxGeometry>
        </mxCell>
        <mxCell id="L03gQ4mKm_Oz2k7DKbrt-22" value="&lt;font style=&quot;font-size: 13px&quot;&gt;User Information&lt;/font&gt;" style="text;html=1;strokeColor=none;fillColor=none;align=center;verticalAlign=middle;whiteSpace=wrap;rounded=0;fontSize=16;rotation=0;" parent="1" vertex="1">
          <mxGeometry x="510" y="230" width="110" height="30" as="geometry" />
        </mxCell>
        <mxCell id="L03gQ4mKm_Oz2k7DKbrt-23" value="&lt;font style=&quot;font-size: 13px&quot;&gt;Confirmation&lt;/font&gt;" style="text;html=1;strokeColor=none;fillColor=none;align=center;verticalAlign=middle;whiteSpace=wrap;rounded=0;fontSize=16;rotation=0;" parent="1" vertex="1">
          <mxGeometry x="520" y="180" width="90" height="30" as="geometry" />
        </mxCell>
      </root>
    </mxGraphModel>
  </diagram>
  <diagram id="10Ci4I4mpWUCXsAIC4gi" name="Page-2">
    <mxGraphModel dx="1036" dy="654" grid="1" gridSize="10" guides="1" tooltips="1" connect="1" arrows="1" fold="1" page="1" pageScale="1" pageWidth="850" pageHeight="1100" math="0" shadow="0">
      <root>
        <mxCell id="0" />
        <mxCell id="1" parent="0" />
        <mxCell id="_76QXvA6773gyLxavYCr-1" value="&lt;font style=&quot;font-size: 11px;&quot;&gt;Merging the main temperature, humidity and oxygen dataframe&lt;/font&gt;" style="ellipse;whiteSpace=wrap;html=1;aspect=fixed;" parent="1" vertex="1">
          <mxGeometry x="360" y="476" width="130" height="130" as="geometry" />
        </mxCell>
        <mxCell id="_76QXvA6773gyLxavYCr-2" value="" style="endArrow=none;html=1;rounded=0;exitX=0.095;exitY=0.197;exitDx=0;exitDy=0;exitPerimeter=0;entryX=0.902;entryY=0.209;entryDx=0;entryDy=0;entryPerimeter=0;" parent="1" source="_76QXvA6773gyLxavYCr-1" target="_76QXvA6773gyLxavYCr-1" edge="1">
          <mxGeometry width="50" height="50" relative="1" as="geometry">
            <mxPoint x="378.99805922287436" y="505.9980592228744" as="sourcePoint" />
            <mxPoint x="470" y="502" as="targetPoint" />
          </mxGeometry>
        </mxCell>
        <mxCell id="_76QXvA6773gyLxavYCr-3" value="3.2" style="text;html=1;strokeColor=none;fillColor=none;align=center;verticalAlign=middle;whiteSpace=wrap;rounded=0;" parent="1" vertex="1">
          <mxGeometry x="395" y="476" width="60" height="30" as="geometry" />
        </mxCell>
        <mxCell id="_76QXvA6773gyLxavYCr-4" value="&lt;font style=&quot;font-size: 12px&quot;&gt;Testing for machine learning detection&lt;/font&gt;" style="ellipse;whiteSpace=wrap;html=1;aspect=fixed;" parent="1" vertex="1">
          <mxGeometry x="95" y="476" width="130" height="130" as="geometry" />
        </mxCell>
        <mxCell id="_76QXvA6773gyLxavYCr-5" value="" style="endArrow=none;html=1;rounded=0;exitX=0.095;exitY=0.197;exitDx=0;exitDy=0;exitPerimeter=0;entryX=0.902;entryY=0.209;entryDx=0;entryDy=0;entryPerimeter=0;" parent="1" source="_76QXvA6773gyLxavYCr-4" target="_76QXvA6773gyLxavYCr-4" edge="1">
          <mxGeometry width="50" height="50" relative="1" as="geometry">
            <mxPoint x="113.99805922287436" y="505.9980592228744" as="sourcePoint" />
            <mxPoint x="205" y="502" as="targetPoint" />
          </mxGeometry>
        </mxCell>
        <mxCell id="_76QXvA6773gyLxavYCr-6" value="3.1" style="text;html=1;strokeColor=none;fillColor=none;align=center;verticalAlign=middle;whiteSpace=wrap;rounded=0;" parent="1" vertex="1">
          <mxGeometry x="130" y="476" width="60" height="30" as="geometry" />
        </mxCell>
        <mxCell id="_76QXvA6773gyLxavYCr-7" value="Splitting dataset into training and testing set" style="ellipse;whiteSpace=wrap;html=1;aspect=fixed;" parent="1" vertex="1">
          <mxGeometry x="600" y="476" width="130" height="130" as="geometry" />
        </mxCell>
        <mxCell id="_76QXvA6773gyLxavYCr-8" value="" style="endArrow=none;html=1;rounded=0;exitX=0.095;exitY=0.197;exitDx=0;exitDy=0;exitPerimeter=0;entryX=0.902;entryY=0.209;entryDx=0;entryDy=0;entryPerimeter=0;" parent="1" source="_76QXvA6773gyLxavYCr-7" target="_76QXvA6773gyLxavYCr-7" edge="1">
          <mxGeometry width="50" height="50" relative="1" as="geometry">
            <mxPoint x="618.9980592228744" y="514.9980592228744" as="sourcePoint" />
            <mxPoint x="710" y="511" as="targetPoint" />
          </mxGeometry>
        </mxCell>
        <mxCell id="_76QXvA6773gyLxavYCr-9" value="3.3" style="text;html=1;strokeColor=none;fillColor=none;align=center;verticalAlign=middle;whiteSpace=wrap;rounded=0;" parent="1" vertex="1">
          <mxGeometry x="635" y="476" width="60" height="30" as="geometry" />
        </mxCell>
        <mxCell id="_76QXvA6773gyLxavYCr-10" value="" style="endArrow=none;html=1;rounded=0;fontSize=15;" parent="1" edge="1">
          <mxGeometry width="50" height="50" relative="1" as="geometry">
            <mxPoint x="240" y="280" as="sourcePoint" />
            <mxPoint x="120" y="280" as="targetPoint" />
          </mxGeometry>
        </mxCell>
        <mxCell id="_76QXvA6773gyLxavYCr-11" value="" style="endArrow=none;html=1;rounded=0;fontSize=15;" parent="1" edge="1">
          <mxGeometry width="50" height="50" relative="1" as="geometry">
            <mxPoint x="240" y="330" as="sourcePoint" />
            <mxPoint x="120" y="330" as="targetPoint" />
          </mxGeometry>
        </mxCell>
        <mxCell id="_76QXvA6773gyLxavYCr-14" value="&lt;font style=&quot;font-size: 16px&quot;&gt;dataset_table&lt;/font&gt;" style="text;html=1;strokeColor=none;fillColor=none;align=center;verticalAlign=middle;whiteSpace=wrap;rounded=0;fontSize=15;" parent="1" vertex="1">
          <mxGeometry x="120" y="290" width="120" height="30" as="geometry" />
        </mxCell>
        <mxCell id="_76QXvA6773gyLxavYCr-16" value="Logistic Regression Model or LR Accuracy" style="ellipse;whiteSpace=wrap;html=1;aspect=fixed;" parent="1" vertex="1">
          <mxGeometry x="358" y="809" width="130" height="130" as="geometry" />
        </mxCell>
        <mxCell id="_76QXvA6773gyLxavYCr-17" value="" style="endArrow=none;html=1;rounded=0;exitX=0.095;exitY=0.197;exitDx=0;exitDy=0;exitPerimeter=0;entryX=0.902;entryY=0.209;entryDx=0;entryDy=0;entryPerimeter=0;" parent="1" source="_76QXvA6773gyLxavYCr-16" target="_76QXvA6773gyLxavYCr-16" edge="1">
          <mxGeometry width="50" height="50" relative="1" as="geometry">
            <mxPoint x="366.99805922287436" y="758.9980592228744" as="sourcePoint" />
            <mxPoint x="458" y="755" as="targetPoint" />
          </mxGeometry>
        </mxCell>
        <mxCell id="_76QXvA6773gyLxavYCr-18" value="3.4" style="text;html=1;strokeColor=none;fillColor=none;align=center;verticalAlign=middle;whiteSpace=wrap;rounded=0;" parent="1" vertex="1">
          <mxGeometry x="393" y="809" width="60" height="30" as="geometry" />
        </mxCell>
        <mxCell id="_76QXvA6773gyLxavYCr-25" value="Random Forest Classification or RF Accuracy" style="ellipse;whiteSpace=wrap;html=1;aspect=fixed;" parent="1" vertex="1">
          <mxGeometry x="669" y="809" width="130" height="130" as="geometry" />
        </mxCell>
        <mxCell id="_76QXvA6773gyLxavYCr-26" value="" style="endArrow=none;html=1;rounded=0;exitX=0.095;exitY=0.197;exitDx=0;exitDy=0;exitPerimeter=0;entryX=0.902;entryY=0.209;entryDx=0;entryDy=0;entryPerimeter=0;" parent="1" source="_76QXvA6773gyLxavYCr-25" target="_76QXvA6773gyLxavYCr-25" edge="1">
          <mxGeometry width="50" height="50" relative="1" as="geometry">
            <mxPoint x="687.9980592228744" y="838.9980592228744" as="sourcePoint" />
            <mxPoint x="779" y="835" as="targetPoint" />
          </mxGeometry>
        </mxCell>
        <mxCell id="_76QXvA6773gyLxavYCr-27" value="3.7" style="text;html=1;strokeColor=none;fillColor=none;align=center;verticalAlign=middle;whiteSpace=wrap;rounded=0;" parent="1" vertex="1">
          <mxGeometry x="704" y="809" width="60" height="30" as="geometry" />
        </mxCell>
        <mxCell id="_76QXvA6773gyLxavYCr-29" value="" style="endArrow=classic;html=1;rounded=0;fontSize=12;entryX=0.031;entryY=0.363;entryDx=0;entryDy=0;entryPerimeter=0;" parent="1" target="_76QXvA6773gyLxavYCr-4" edge="1">
          <mxGeometry width="50" height="50" relative="1" as="geometry">
            <mxPoint x="230" y="280" as="sourcePoint" />
            <mxPoint x="450" y="420" as="targetPoint" />
            <Array as="points">
              <mxPoint x="230" y="220" />
              <mxPoint x="60" y="220" />
              <mxPoint x="60" y="523" />
            </Array>
          </mxGeometry>
        </mxCell>
        <mxCell id="_76QXvA6773gyLxavYCr-31" value="Fetch temperature, humidity and oxygen level data" style="text;html=1;strokeColor=none;fillColor=none;align=center;verticalAlign=middle;whiteSpace=wrap;rounded=0;fontSize=12;" parent="1" vertex="1">
          <mxGeometry x="60" y="180" width="180" height="30" as="geometry" />
        </mxCell>
        <mxCell id="_76QXvA6773gyLxavYCr-32" value="" style="endArrow=classic;html=1;rounded=0;fontSize=12;exitX=0.5;exitY=0;exitDx=0;exitDy=0;entryX=0.5;entryY=0;entryDx=0;entryDy=0;" parent="1" source="_76QXvA6773gyLxavYCr-6" target="_76QXvA6773gyLxavYCr-3" edge="1">
          <mxGeometry width="50" height="50" relative="1" as="geometry">
            <mxPoint x="400" y="510" as="sourcePoint" />
            <mxPoint x="450" y="460" as="targetPoint" />
            <Array as="points">
              <mxPoint x="160" y="450" />
              <mxPoint x="425" y="450" />
            </Array>
          </mxGeometry>
        </mxCell>
        <mxCell id="_76QXvA6773gyLxavYCr-33" value="" style="endArrow=classic;html=1;rounded=0;fontSize=12;entryX=0;entryY=0.5;entryDx=0;entryDy=0;exitX=1;exitY=0.5;exitDx=0;exitDy=0;" parent="1" source="_76QXvA6773gyLxavYCr-1" target="_76QXvA6773gyLxavYCr-7" edge="1">
          <mxGeometry width="50" height="50" relative="1" as="geometry">
            <mxPoint x="400" y="510" as="sourcePoint" />
            <mxPoint x="450" y="460" as="targetPoint" />
          </mxGeometry>
        </mxCell>
        <mxCell id="_76QXvA6773gyLxavYCr-37" value="" style="endArrow=classic;html=1;rounded=0;fontSize=12;exitX=0.5;exitY=1;exitDx=0;exitDy=0;entryX=0.5;entryY=0;entryDx=0;entryDy=0;" parent="1" source="_76QXvA6773gyLxavYCr-7" target="_76QXvA6773gyLxavYCr-18" edge="1">
          <mxGeometry width="50" height="50" relative="1" as="geometry">
            <mxPoint x="400" y="620" as="sourcePoint" />
            <mxPoint x="450" y="570" as="targetPoint" />
            <Array as="points">
              <mxPoint x="665" y="760" />
              <mxPoint x="423" y="760" />
            </Array>
          </mxGeometry>
        </mxCell>
        <mxCell id="_76QXvA6773gyLxavYCr-38" value="Rainfall occurence 1" style="text;html=1;strokeColor=none;fillColor=none;align=center;verticalAlign=middle;whiteSpace=wrap;rounded=0;fontSize=12;" parent="1" vertex="1">
          <mxGeometry x="200" y="420" width="180" height="30" as="geometry" />
        </mxCell>
        <mxCell id="_76QXvA6773gyLxavYCr-39" value="No rainfall occurence 0" style="text;html=1;strokeColor=none;fillColor=none;align=center;verticalAlign=middle;whiteSpace=wrap;rounded=0;fontSize=12;" parent="1" vertex="1">
          <mxGeometry x="200" y="450" width="180" height="30" as="geometry" />
        </mxCell>
        <mxCell id="_76QXvA6773gyLxavYCr-41" value="Forest Fire occurence predictions" style="text;html=1;strokeColor=none;fillColor=none;align=center;verticalAlign=middle;whiteSpace=wrap;rounded=0;fontSize=12;" parent="1" vertex="1">
          <mxGeometry x="453" y="730" width="205" height="30" as="geometry" />
        </mxCell>
        <mxCell id="_76QXvA6773gyLxavYCr-44" value="" style="endArrow=classic;html=1;rounded=0;fontSize=12;entryX=0.5;entryY=0;entryDx=0;entryDy=0;" parent="1" target="_76QXvA6773gyLxavYCr-27" edge="1">
          <mxGeometry width="50" height="50" relative="1" as="geometry">
            <mxPoint x="660" y="760" as="sourcePoint" />
            <mxPoint x="450" y="500" as="targetPoint" />
            <Array as="points">
              <mxPoint x="734" y="760" />
            </Array>
          </mxGeometry>
        </mxCell>
        <mxCell id="_76QXvA6773gyLxavYCr-45" value="&lt;font style=&quot;font-size: 17px&quot;&gt;Admin&lt;/font&gt;" style="rounded=0;whiteSpace=wrap;html=1;" parent="1" vertex="1">
          <mxGeometry x="679" y="275" width="120" height="60" as="geometry" />
        </mxCell>
        <mxCell id="_76QXvA6773gyLxavYCr-47" value="" style="endArrow=classic;html=1;rounded=0;fontSize=17;exitX=0.5;exitY=1;exitDx=0;exitDy=0;" parent="1" source="_76QXvA6773gyLxavYCr-45" edge="1">
          <mxGeometry width="50" height="50" relative="1" as="geometry">
            <mxPoint x="400" y="330" as="sourcePoint" />
            <mxPoint x="170" y="330" as="targetPoint" />
            <Array as="points">
              <mxPoint x="739" y="370" />
              <mxPoint x="170" y="370" />
            </Array>
          </mxGeometry>
        </mxCell>
        <mxCell id="_76QXvA6773gyLxavYCr-49" value="Manages temperature, humidity and oxygen level csv" style="text;html=1;strokeColor=none;fillColor=none;align=center;verticalAlign=middle;whiteSpace=wrap;rounded=0;fontSize=12;" parent="1" vertex="1">
          <mxGeometry x="285" y="335" width="325" height="30" as="geometry" />
        </mxCell>
      </root>
    </mxGraphModel>
  </diagram>
</mxfile>
